<svg width="40" height="40" viewBox="0 0 40 40" fill="none" xmlns="http://www.w3.org/2000/svg">
<path d="M33.9082 6.88477L34.5894 5.54834L34.5892 5.54826L33.9082 6.88477ZM34.7822 7.75879L36.1188 7.07799L36.1187 7.0778L34.7822 7.75879ZM35 9.86621H36.5H35ZM35 16.2822H36.5H35ZM34.9775 16.5195L36.3444 17.1374L36.3454 17.1351L34.9775 16.5195ZM34.8525 16.6445L35.4681 18.0124L35.4682 18.0124L34.8525 16.6445ZM33.333 16.667V15.167V16.667ZM32.7383 16.6777L32.6075 15.1834L32.6074 15.1835L32.7383 16.6777ZM30.0117 19.4053L28.5174 19.2745L28.5174 19.2746L30.0117 19.4053ZM30 20H28.5H30ZM30.0117 20.5947L28.5174 20.7254L28.5174 20.7255L30.0117 20.5947ZM32.7383 23.3223L32.6074 24.8165L32.6075 24.8166L32.7383 23.3223ZM33.333 23.333V24.833V23.333ZM34.8525 23.3555L35.4682 21.9876L35.4681 21.9876L34.8525 23.3555ZM34.9775 23.4805L36.3454 22.8648L36.3444 22.8626L34.9775 23.4805ZM35 23.7178H36.5H35ZM35 30.1338H36.5H35ZM34.7822 32.2412L36.1187 32.9222L36.1188 32.922L34.7822 32.2412ZM33.9082 33.1152L34.5892 34.4517L34.5894 34.4517L33.9082 33.1152ZM8.2002 33.333V31.833V33.333ZM6.0918 33.1152L5.41065 34.4517L5.41081 34.4517L6.0918 33.1152ZM5.21777 32.2412L3.88117 32.922L3.88126 32.9222L5.21777 32.2412ZM5 30.1338H3.5H5ZM5 23.7178H3.5H5ZM5.02246 23.4805L3.65564 22.8626L3.65461 22.8648L5.02246 23.4805ZM5.14746 23.3555L4.53195 21.9876L4.53184 21.9876L5.14746 23.3555ZM5.38477 23.333V21.833V23.333ZM6.66699 23.333V24.833V23.333ZM7.26172 23.3223L7.39245 24.8166L7.39256 24.8165L7.26172 23.3223ZM9.98828 20.5947L11.4826 20.7255L11.4826 20.7254L9.98828 20.5947ZM10 20H11.5H10ZM9.98828 19.4053L11.4826 19.2746L11.4826 19.2745L9.98828 19.4053ZM7.26172 16.6777L7.39256 15.1835L7.39245 15.1834L7.26172 16.6777ZM6.66699 16.667V15.167V16.667ZM5.38477 16.667V18.167V16.667ZM5.14746 16.6445L4.53184 18.0124L4.53195 18.0124L5.14746 16.6445ZM5.02246 16.5195L3.65461 17.1352L3.65564 17.1374L5.02246 16.5195ZM5 16.2822H3.5H5ZM5 9.86621H3.5H5ZM5.21777 7.75879L3.88126 7.0778L3.88117 7.07799L5.21777 7.75879ZM6.0918 6.88477L5.41081 5.54826L5.41065 5.54834L6.0918 6.88477ZM8.2002 6.66699V8.16699V6.66699ZM31.7998 6.66699V8.16699C32.3847 8.16699 32.7333 8.1681 32.9917 8.18917C33.2328 8.20882 33.2603 8.23811 33.2272 8.22128L33.9082 6.88477L34.5892 5.54826C34.1283 5.31343 33.6616 5.23383 33.2355 5.19909C32.8267 5.16577 32.335 5.16699 31.7998 5.16699V6.66699ZM33.9082 6.88477L33.2271 8.22119C33.3213 8.26922 33.3979 8.34589 33.4457 8.43977L34.7822 7.75879L36.1187 7.0778C35.7832 6.41919 35.2476 5.88382 34.5894 5.54834L33.9082 6.88477ZM34.7822 7.75879L33.4456 8.43959C33.4289 8.40672 33.4581 8.43427 33.4778 8.67503C33.4989 8.93328 33.5 9.28158 33.5 9.86621H35H36.5C36.5 9.33119 36.5012 8.83964 36.4678 8.43103C36.4331 8.00494 36.3534 7.5386 36.1188 7.07799L34.7822 7.75879ZM35 9.86621H33.5V16.2822H35H36.5V9.86621H35ZM35 16.2822H33.5C33.5 16.3155 33.4999 16.3311 33.4998 16.3415C33.4996 16.3521 33.4995 16.3396 33.5014 16.3155C33.5049 16.2695 33.52 16.1033 33.6097 15.9039L34.9775 16.5195L36.3454 17.1351C36.4571 16.8868 36.4834 16.6647 36.4927 16.5437C36.5008 16.4368 36.5 16.3256 36.5 16.2822H35ZM34.9775 16.5195L33.6107 15.9016C33.7351 15.6264 33.9566 15.4028 34.2369 15.2767L34.8525 16.6445L35.4682 18.0124C35.8596 17.8362 36.1697 17.5237 36.3444 17.1374L34.9775 16.5195ZM34.8525 16.6445L34.237 15.2766C34.4362 15.187 34.6021 15.1719 34.6485 15.1684C34.6726 15.1665 34.6852 15.1666 34.6746 15.1668C34.6641 15.1669 34.6485 15.167 34.6152 15.167V16.667V18.167C34.6586 18.167 34.7698 18.1678 34.8767 18.1597C34.9981 18.1504 35.22 18.1241 35.4681 18.0124L34.8525 16.6445ZM34.6152 16.667V15.167H33.333V16.667V18.167H34.6152V16.667ZM33.333 16.667V15.167C33.0614 15.167 32.8209 15.1648 32.6075 15.1834L32.7383 16.6777L32.869 18.172C32.9166 18.1679 32.986 18.167 33.333 18.167V16.667ZM32.7383 16.6777L32.6074 15.1835C30.4316 15.374 28.7077 17.0997 28.5174 19.2745L30.0117 19.4053L31.506 19.536C31.5695 18.8104 32.1445 18.2355 32.8691 18.172L32.7383 16.6777ZM30.0117 19.4053L28.5174 19.2746C28.4989 19.4861 28.5 19.7195 28.5 20H30H31.5C31.5 19.6615 31.5017 19.5854 31.506 19.536L30.0117 19.4053ZM30 20H28.5C28.5 20.2805 28.4989 20.5139 28.5174 20.7254L30.0117 20.5947L31.506 20.464C31.5017 20.4146 31.5 20.3385 31.5 20H30ZM30.0117 20.5947L28.5174 20.7255C28.7077 22.9003 30.4316 24.626 32.6074 24.8165L32.7383 23.3223L32.8691 21.828C32.1445 21.7645 31.5695 21.1896 31.506 20.464L30.0117 20.5947ZM32.7383 23.3223L32.6075 24.8166C32.8209 24.8352 33.0614 24.833 33.333 24.833V23.333V21.833C32.986 21.833 32.9166 21.8321 32.869 21.828L32.7383 23.3223ZM33.333 23.333V24.833H34.6152V23.333V21.833H33.333V23.333ZM34.6152 23.333V24.833C34.6485 24.833 34.6641 24.8331 34.6746 24.8332C34.6852 24.8334 34.6726 24.8335 34.6485 24.8316C34.6021 24.8281 34.4362 24.813 34.237 24.7234L34.8525 23.3555L35.4681 21.9876C35.22 21.8759 34.9981 21.8496 34.8767 21.8403C34.7698 21.8322 34.6586 21.833 34.6152 21.833V23.333ZM34.8525 23.3555L34.2369 24.7233C33.9566 24.5972 33.7351 24.3736 33.6107 24.0984L34.9775 23.4805L36.3444 22.8626C36.1697 22.4763 35.8596 22.1638 35.4682 21.9876L34.8525 23.3555ZM34.9775 23.4805L33.6097 24.0961C33.52 23.8967 33.5049 23.7305 33.5014 23.6845C33.4995 23.6604 33.4996 23.6479 33.4998 23.6585C33.4999 23.6689 33.5 23.6845 33.5 23.7178H35H36.5C36.5 23.6744 36.5008 23.5632 36.4927 23.4563C36.4834 23.3353 36.4571 23.1132 36.3454 22.8648L34.9775 23.4805ZM35 23.7178H33.5V30.1338H35H36.5V23.7178H35ZM35 30.1338H33.5C33.5 30.7184 33.4989 31.0667 33.4778 31.325C33.4581 31.5657 33.4289 31.5933 33.4456 31.5604L34.7822 32.2412L36.1188 32.922C36.3534 32.4614 36.4331 31.9951 36.4678 31.569C36.5012 31.1604 36.5 30.6688 36.5 30.1338H35ZM34.7822 32.2412L33.4457 31.5602C33.3979 31.6541 33.3213 31.7308 33.2271 31.7788L33.9082 33.1152L34.5894 34.4517C35.2476 34.1162 35.7832 33.5808 36.1187 32.9222L34.7822 32.2412ZM33.9082 33.1152L33.2272 31.7787C33.2603 31.7619 33.2328 31.7912 32.9917 31.8108C32.7333 31.8319 32.3847 31.833 31.7998 31.833V33.333V34.833C32.335 34.833 32.8267 34.8342 33.2355 34.8009C33.6616 34.7662 34.1283 34.6866 34.5892 34.4517L33.9082 33.1152ZM31.7998 33.333V31.833H8.2002V33.333V34.833H31.7998V33.333ZM8.2002 33.333V31.833C7.61525 31.833 7.26674 31.8319 7.00826 31.8108C6.76721 31.7912 6.73974 31.7619 6.77278 31.7787L6.0918 33.1152L5.41081 34.4517C5.87168 34.6866 6.33835 34.7662 6.76452 34.8009C7.17325 34.8342 7.66503 34.833 8.2002 34.833V33.333ZM6.0918 33.1152L6.77295 31.7788C6.67872 31.7308 6.60212 31.6541 6.55428 31.5602L5.21777 32.2412L3.88126 32.9222C4.21684 33.5808 4.75243 34.1162 5.41065 34.4517L6.0918 33.1152ZM5.21777 32.2412L6.55438 31.5604C6.57112 31.5933 6.54186 31.5657 6.52222 31.325C6.50114 31.0667 6.5 30.7184 6.5 30.1338H5H3.5C3.5 30.6688 3.49881 31.1604 3.53215 31.569C3.56693 31.9951 3.64655 32.4614 3.88117 32.922L5.21777 32.2412ZM5 30.1338H6.5V23.7178H5H3.5V30.1338H5ZM5 23.7178H6.5C6.5 23.6845 6.50006 23.6689 6.50022 23.6585C6.50039 23.6479 6.50047 23.6604 6.49863 23.6845C6.49512 23.7305 6.48005 23.8967 6.39031 24.0961L5.02246 23.4805L3.65461 22.8648C3.54286 23.1132 3.51656 23.3353 3.50732 23.4563C3.49917 23.5632 3.5 23.6744 3.5 23.7178H5ZM5.02246 23.4805L6.38928 24.0984C6.26486 24.3736 6.04336 24.5972 5.76308 24.7233L5.14746 23.3555L4.53184 21.9876C4.1404 22.1638 3.83027 22.4763 3.65564 22.8626L5.02246 23.4805ZM5.14746 23.3555L5.76297 24.7234C5.56384 24.813 5.39785 24.8281 5.35151 24.8316C5.32737 24.8335 5.31479 24.8334 5.3254 24.8332C5.33586 24.8331 5.35146 24.833 5.38477 24.833V23.333V21.833C5.34137 21.833 5.23018 21.8322 5.12328 21.8403C5.0019 21.8496 4.78001 21.8759 4.53195 21.9876L5.14746 23.3555ZM5.38477 23.333V24.833H6.66699V23.333V21.833H5.38477V23.333ZM6.66699 23.333V24.833C6.93861 24.833 7.17915 24.8352 7.39245 24.8166L7.26172 23.3223L7.13099 21.828C7.08341 21.8321 7.01403 21.833 6.66699 21.833V23.333ZM7.26172 23.3223L7.39256 24.8165C9.56844 24.626 11.2923 22.9003 11.4826 20.7255L9.98828 20.5947L8.49399 20.464C8.4305 21.1896 7.85547 21.7645 7.13088 21.828L7.26172 23.3223ZM9.98828 20.5947L11.4826 20.7254C11.5011 20.5139 11.5 20.2805 11.5 20H10H8.5C8.5 20.3385 8.49831 20.4146 8.49399 20.464L9.98828 20.5947ZM10 20H11.5C11.5 19.7195 11.5011 19.4861 11.4826 19.2746L9.98828 19.4053L8.49399 19.536C8.49831 19.5854 8.5 19.6615 8.5 20H10ZM9.98828 19.4053L11.4826 19.2745C11.2923 17.0997 9.56844 15.374 7.39256 15.1835L7.26172 16.6777L7.13088 18.172C7.85547 18.2355 8.4305 18.8104 8.49399 19.536L9.98828 19.4053ZM7.26172 16.6777L7.39245 15.1834C7.17915 15.1648 6.93861 15.167 6.66699 15.167V16.667V18.167C7.01403 18.167 7.08341 18.1679 7.13099 18.172L7.26172 16.6777ZM6.66699 16.667V15.167H5.38477V16.667V18.167H6.66699V16.667ZM5.38477 16.667V15.167C5.35146 15.167 5.33586 15.1669 5.3254 15.1668C5.31479 15.1666 5.32737 15.1665 5.35152 15.1684C5.39785 15.1719 5.56384 15.187 5.76297 15.2766L5.14746 16.6445L4.53195 18.0124C4.78001 18.1241 5.0019 18.1504 5.12328 18.1597C5.23018 18.1678 5.34137 18.167 5.38477 18.167V16.667ZM5.14746 16.6445L5.76308 15.2767C6.04337 15.4028 6.26486 15.6264 6.38928 15.9016L5.02246 16.5195L3.65564 17.1374C3.83027 17.5237 4.1404 17.8362 4.53184 18.0124L5.14746 16.6445ZM5.02246 16.5195L6.39031 15.9039C6.48005 16.1033 6.49512 16.2695 6.49863 16.3155C6.50047 16.3396 6.50039 16.3521 6.50022 16.3415C6.50006 16.3311 6.5 16.3155 6.5 16.2822H5H3.5C3.5 16.3256 3.49917 16.4368 3.50732 16.5437C3.51656 16.6647 3.54286 16.8868 3.65461 17.1351L5.02246 16.5195ZM5 16.2822H6.5V9.86621H5H3.5V16.2822H5ZM5 9.86621H6.5C6.5 9.28158 6.50114 8.93328 6.52222 8.67503C6.54186 8.43427 6.57112 8.40672 6.55438 8.43959L5.21777 7.75879L3.88117 7.07799C3.64655 7.5386 3.56693 8.00494 3.53215 8.43103C3.49881 8.83964 3.5 9.33119 3.5 9.86621H5ZM5.21777 7.75879L6.55428 8.43977C6.60212 8.34588 6.67872 8.26922 6.77295 8.22119L6.0918 6.88477L5.41065 5.54834C4.75243 5.88382 4.21684 6.41919 3.88126 7.0778L5.21777 7.75879ZM6.0918 6.88477L6.77278 8.22128C6.73974 8.23811 6.76721 8.20882 7.00826 8.18917C7.26674 8.1681 7.61525 8.16699 8.2002 8.16699V6.66699V5.16699C7.66503 5.16699 7.17325 5.16577 6.76452 5.19909C6.33835 5.23383 5.87168 5.31343 5.41081 5.54826L6.0918 6.88477ZM8.2002 6.66699V8.16699H31.7998V6.66699V5.16699H8.2002V6.66699Z" fill="#AAAAAA"/>
<path d="M23 14V15" stroke="#AAAAAA" stroke-width="3" stroke-linecap="round"/>
<path d="M23 9V10" stroke="#AAAAAA" stroke-width="3" stroke-linecap="round"/>
<path d="M23 19V20" stroke="#AAAAAA" stroke-width="3" stroke-linecap="round"/>
<path d="M23 24V25" stroke="#AAAAAA" stroke-width="3" stroke-linecap="round"/>
<path d="M23 30V31" stroke="#AAAAAA" stroke-width="3" stroke-linecap="round"/>
</svg>
