<svg width="40" height="40" viewBox="0 0 40 40" fill="none" xmlns="http://www.w3.org/2000/svg">
<path d="M5 10.1667V10.1667C5 9.0811 5 8.5383 5.13885 8.09792C5.43318 7.16443 6.16439 6.43322 7.09788 6.13889C7.53825 6.00004 8.08106 6.00004 9.16666 6.00004L32.3333 6.00004C32.8047 6.00004 33.0404 6.00004 33.1869 6.14649C33.3333 6.29293 33.3333 6.52863 33.3333 7.00004V8.33337C33.3333 11.1618 33.3333 12.576 32.4546 13.4547C31.576 14.3334 30.1617 14.3334 27.3333 14.3334H25M5 10.1667V10.1667C5 11.2523 5 11.7951 5.13885 12.2355C5.43318 13.169 6.16439 13.9002 7.09788 14.1945C7.53825 14.3334 8.08106 14.3334 9.16666 14.3334L33 14.3334C33.9428 14.3334 34.4142 14.3334 34.7071 14.6263C35 14.9192 35 15.3906 35 16.3334L35 21M5 10.1667L5 30.3334C5 32.219 5 33.1618 5.58578 33.7476C6.17157 34.3334 7.11438 34.3334 9 34.3334L33 34.3334C33.9428 34.3334 34.4142 34.3334 34.7071 34.0405C35 33.7476 35 33.2762 35 32.3334L35 27.6667M35 27.6667H27C26.0572 27.6667 25.5858 27.6667 25.2929 27.3738C25 27.0809 25 26.6095 25 25.6667V23C25 22.0572 25 21.5858 25.2929 21.2929C25.5858 21 26.0572 21 27 21H35M35 27.6667L35 21" stroke="#AAAAAA" stroke-width="3"/>
</svg>
